<?xml version="1.0" encoding="utf-8"?>
<!-- Generator: Adobe Illustrator 23.0.3, SVG Export Plug-In . SVG Version: 6.00 Build 0)  -->
<svg version="1.1" id="Layer_1" xmlns="http://www.w3.org/2000/svg" xmlns:xlink="http://www.w3.org/1999/xlink" x="0px" y="0px"
	 viewBox="0 0 179.5 64.7" style="enable-background:new 0 0 179.5 64.7;" xml:space="preserve">
<style type="text/css">
	.st0{fill:none;}
	.st1{fill:#EE2C30;}
	.st2{fill-rule:evenodd;clip-rule:evenodd;fill:#F5831F;}
</style>
<g>
	<g>
		<path class="st0" d="M126.8,25.5c-3.9,0-7.1,2.7-7.9,6.4c-0.1,0.5-0.2,1-0.2,1.5c0,4.5,3.6,8.1,8.1,8.1c2.2,0,4.1-0.9,5.6-2.2
			c1.3-1.3,2.2-3,2.4-5h0v-1.5C134.4,28.7,131,25.5,126.8,25.5z"/>
		<path class="st0" d="M55.9,25.2c-4.6,0-8.3,3.7-8.3,8.3s3.7,8.3,8.3,8.3v0c4.6,0,8.3-3.7,8.3-8.3S60.5,25.2,55.9,25.2z"/>
		<ellipse class="st0" cx="162.9" cy="33.4" rx="8.1" ry="8.1"/>
		<path class="st0" d="M21.3,23.9c-3.6,0-6.6,2.2-7.4,5.5l-0.2,0.7h15.1l-0.1-0.7C28,26.1,24.9,23.9,21.3,23.9z"/>
		<path class="st1" d="M21.3,16.2c-9.2,0-16.2,7.3-16.2,17.1v0.1c0,9.8,7.2,17,17.1,17c5.6,0,9.6-2.1,12.9-6.1l0.4-0.5l-6.1-4.9
			l-1,1c-2.3,2.2-3.9,2.6-6.7,2.6c-3.1,0-6.5-2.3-7.5-5.4h22.3l0.7,0l0-0.7c0.1-0.8,0.1-1.7,0.1-2.4c0-4.8-1.4-9.2-3.9-12.3
			C30.5,18,26.4,16.2,21.3,16.2z M13.7,30.1l0.2-0.7c0.8-3.4,3.9-5.5,7.4-5.5c3.7,0,6.7,2.2,7.4,5.5l0.1,0.7H13.7z"/>
		<path class="st1" d="M89.7,40.8c-2.3,0-4.2-1.7-4.2-3.9c0-0.1-0.1-1.3-0.1-2.7v-9h9.1v-8.6h-9.1V5.3h-9.7v31.4h0
			c0,0.1,0,0.2,0,0.2c0,7.1,6.3,12.9,14.1,12.9c0.2,0,0.3,0,5.3,0v-9l0,0C90,40.8,89.8,40.8,89.7,40.8z"/>
		<path class="st1" d="M57.3,16.3c-0.6,0-1.3-0.1-2,0c-9.4,0.3-16.9,8.4-16.6,17.9c0.3,9.3,7.9,16.3,17.2,16.3
			c3.2,0,5.5-1.1,8.3-3.1v2.4h8.5V33.4C72.7,24.6,66,17,57.3,16.3z M55.9,41.9L55.9,41.9c-4.6,0-8.3-3.7-8.3-8.3s3.7-8.3,8.3-8.3
			c4.6,0,8.3,3.7,8.3,8.3S60.5,41.9,55.9,41.9z"/>
		<path class="st1" d="M130.5,16.6c-0.2,0-0.5-0.1-0.7-0.1c-1-0.2-2.1-0.3-3.1-0.3c-9.3,0-16.8,7.6-16.8,17c0,0.9,0.1,1.9,0.2,2.8
			c1.1,8.3,8.1,14.3,16.8,14.3c1.3,0,2.6-0.2,3.8-0.6c1.5-0.4,2.9-0.9,4.2-1.7v2c0,1.3-0.4,2.6-1.1,3.6c-1,1.4-2.9,2.7-6.2,2.7
			c0,0-5.6,0-7-2.9h-9.2c0,0,1.5,11.2,17.2,11.2c0,0,3.2-0.2,6.7-1.5c5.3-2,8.8-7.2,8.8-12.9V33.4h0C144,25.3,138.4,18.2,130.5,16.6
			z M134.8,34.3L134.8,34.3c-0.2,1.9-1.1,3.7-2.4,5c-1.5,1.4-3.4,2.2-5.6,2.2c-4.5,0-8.1-3.6-8.1-8.1c0-0.5,0.1-1,0.2-1.5
			c0.8-3.6,4-6.4,7.9-6.4c4.2,0,7.6,3.2,8,7.3V34.3z"/>
		<path class="st1" d="M162.7,16.2c-9.3,0-16.8,7.6-16.8,17c0,9.4,7.5,17,16.8,17c9.3,0,16.8-7.6,16.8-17
			C179.5,23.8,172,16.2,162.7,16.2z M162.9,41.6c-4.5,0-8.1-3.6-8.1-8.1c0-4.5,3.6-8.1,8.1-8.1c4.5,0,8.1,3.6,8.1,8.1
			C171,37.9,167.4,41.6,162.9,41.6z"/>
		<rect x="97.2" y="16.6" class="st1" width="9.7" height="33.2"/>
		<path class="st1" d="M102,4.1c-3.1,0-5.6,2.5-5.6,5.6c0,3.1,2.5,5.6,5.6,5.6c3.1,0,5.6-2.5,5.6-5.6C107.5,6.6,105,4.1,102,4.1z"/>
	</g>
	<path class="st2" d="M5,24.1c2.8-5.4,8.1-9.3,14.4-10c1.9-0.7,3.2-2.6,3.2-4.7c0-2.8-2.2-5-5-5c-0.1,0-0.3,0-0.4,0
		c-0.7-2.5-3-4.4-5.7-4.4C8.7,0,6.4,1.9,5.7,4.4C5.5,4.4,5.3,4.3,5,4.3c-2.8,0-5,2.3-5,5c0,2.8,2.2,5,5,5V24.1L5,24.1z"/>
</g>
</svg>
